<svg version="1.0" xmlns="http://www.w3.org/2000/svg"
 width="963.000000pt" height="932.000000pt" viewBox="0 0 963.000000 932.000000"
 preserveAspectRatio="xMidYMid meet">

<g transform="translate(0.000000,932.000000) scale(0.100000,-0.100000)"
fill="#fbf4a1" stroke="none">
<path d="M4215 8330 c-245 -22 -545 -88 -765 -167 -216 -78 -520 -233 -690
-351 -712 -498 -1164 -1238 -1287 -2112 -13 -93 -17 -192 -18 -385 0 -240 2
-263 20 -300 36 -72 119 -89 171 -34 l29 30 -3 232 c-2 128 2 284 8 347 63
655 362 1279 832 1736 595 578 1394 859 2228 784 494 -45 1002 -244 1415 -554
157 -119 436 -396 541 -538 274 -373 438 -745 523 -1188 33 -170 44 -310 45
-578 l1 -254 29 -25 c25 -21 37 -24 74 -20 71 8 92 36 104 143 15 133 3 483
-21 643 -83 535 -301 1036 -631 1451 -46 58 -156 177 -244 265 -247 246 -472
407 -791 565 -322 159 -610 248 -961 295 -135 19 -475 27 -609 15z"/>
<path d="M3676 7028 c-8 -29 -58 -217 -112 -418 -53 -201 -98 -366 -99 -367 0
-1 -30 9 -65 24 -155 62 -336 -10 -411 -164 -18 -38 -23 -65 -23 -133 -1 -78
2 -90 33 -148 19 -35 53 -79 75 -98 153 -131 402 -80 494 103 11 21 77 252
147 513 69 261 128 476 130 478 2 2 95 -21 206 -52 112 -30 205 -54 207 -52 1
2 16 49 31 105 l28 101 -36 9 c-20 6 -156 42 -302 80 -147 39 -271 71 -277 71
-6 0 -17 -24 -26 -52z"/>
<path d="M5660 7025 c-80 -24 -296 -86 -480 -139 -184 -53 -343 -99 -352 -102
-10 -3 -18 -12 -18 -20 0 -7 50 -187 110 -398 61 -211 110 -386 110 -389 0 -2
-26 -7 -58 -9 -119 -11 -230 -94 -271 -201 -24 -67 -28 -171 -7 -230 62 -173
272 -259 445 -182 115 52 181 155 188 297 3 62 -7 104 -127 520 -71 248 -128
453 -126 456 11 10 583 172 601 170 16 -3 28 -34 75 -199 l57 -197 -66 -4
c-82 -6 -146 -34 -205 -88 -129 -119 -137 -316 -18 -451 65 -74 192 -118 289
-100 158 30 260 147 271 309 3 39 9 72 13 72 5 0 9 5 9 12 0 7 -55 201 -121
432 -67 232 -126 436 -131 454 -6 21 -15 32 -26 31 -9 -1 -82 -21 -162 -44z"/>
<path d="M7561 4804 c-24 -19 -66 -42 -93 -52 -36 -13 -47 -21 -41 -32 27 -60
65 -191 74 -256 13 -90 6 -208 -17 -304 -20 -80 -83 -218 -123 -269 l-30 -38
24 -69 c13 -38 27 -95 31 -127 l7 -58 35 33 c59 56 151 186 191 272 78 163
106 309 98 508 -5 144 -31 257 -85 370 l-27 56 -44 -34z"/>
<path d="M1304 4793 c-73 -169 -98 -303 -91 -473 7 -154 39 -288 100 -415 44
-90 138 -224 195 -279 l30 -28 7 48 c3 27 17 84 30 127 l25 78 -40 58 c-139
204 -173 472 -89 711 16 47 32 92 35 101 4 11 -5 19 -35 27 -22 7 -61 28 -86
47 -25 19 -50 35 -55 35 -5 0 -17 -17 -26 -37z"/>
<path d="M2785 4794 c-11 -3 -132 -35 -270 -71 -137 -36 -254 -69 -258 -73 -5
-4 8 -68 28 -141 43 -159 260 -967 376 -1404 45 -170 85 -313 88 -317 10 -12
528 129 589 159 34 17 66 44 92 78 96 124 97 182 11 500 -34 127 -111 413
-171 636 -60 224 -119 429 -132 455 -27 59 -91 125 -148 154 -42 22 -161 35
-205 24z"/>
<path d="M6015 4793 c-80 -18 -151 -64 -194 -127 -41 -60 -38 -49 -305 -1052
-93 -346 -101 -406 -70 -498 22 -64 100 -148 164 -175 75 -32 561 -164 571
-154 4 4 51 170 104 368 145 544 309 1151 355 1323 23 85 39 159 37 166 -3 7
-79 32 -168 56 -90 24 -211 56 -269 71 -96 26 -174 34 -225 22z"/>
<path d="M4360 3915 l0 -434 -82 6 c-107 7 -176 -17 -246 -85 -66 -64 -96
-129 -100 -217 -7 -126 56 -238 169 -300 49 -27 62 -30 149 -30 84 0 101 3
145 27 60 32 114 87 146 148 l24 45 5 530 5 530 213 3 212 2 0 105 0 105 -320
0 -320 0 0 -435z"/>
<path d="M2060 4268 c-19 -5 -36 -11 -38 -13 -4 -3 327 -1237 333 -1243 2 -3
26 2 53 9 l49 14 -166 620 c-122 455 -170 620 -181 622 -8 1 -31 -3 -50 -9z"/>
<path d="M6796 4228 c-36 -125 -316 -1178 -316 -1186 0 -11 89 -36 98 -28 6 6
331 1215 332 1232 0 9 -69 34 -94 34 -3 0 -12 -24 -20 -52z"/>
<path d="M1845 3819 c-60 -67 -80 -120 -80 -219 0 -73 4 -92 28 -137 47 -91
122 -151 216 -172 29 -6 41 -6 41 3 0 29 -148 560 -157 563 -6 2 -27 -15 -48
-38z"/>
<path d="M7021 3823 c-6 -21 -39 -148 -75 -283 -37 -134 -66 -247 -66 -251 0
-13 78 9 129 37 180 97 217 349 73 497 -20 20 -39 37 -44 37 -4 0 -12 -17 -17
-37z"/>
<path d="M1780 1890 l0 -80 151 0 151 0 -4 -137 c-3 -122 -6 -142 -25 -174
-52 -82 -161 -130 -316 -137 -206 -9 -350 44 -393 145 -8 18 -14 60 -14 93 l0
60 -80 0 -80 0 0 -70 c0 -247 230 -405 565 -387 240 13 392 93 467 245 l33 66
3 228 3 228 -230 0 -231 0 0 -80z"/>
<path d="M3760 1730 c0 -132 -4 -240 -8 -240 -5 0 -208 104 -450 230 -243 127
-447 230 -452 230 -7 0 -9 -126 -8 -372 l3 -373 77 -3 78 -3 2 245 3 245 450
-235 c248 -128 453 -234 458 -234 4 0 6 168 5 373 l-3 372 -77 3 -78 3 0 -241z"/>
<path d="M5422 1588 l3 -383 530 0 530 0 3 78 3 77 -456 0 -455 0 0 305 0 305
-80 0 -80 0 2 -382z"/>
<path d="M6720 1585 l0 -385 533 2 532 3 3 78 3 77 -454 0 -454 0 -7 65 c-4
36 -4 70 -1 75 4 6 126 10 306 10 l299 0 0 75 0 75 -300 0 -300 0 -1 38 c-1
20 -2 54 -4 75 l-3 37 459 0 460 0 -3 78 -3 77 -532 3 -533 2 0 -385z"/>
<path d="M2462 1583 l3 -378 78 -3 77 -3 0 381 0 380 -80 0 -80 0 2 -377z"/>
<path d="M4525 1949 c-167 -25 -298 -108 -353 -227 -36 -76 -38 -202 -5 -274
31 -68 103 -140 175 -176 120 -60 151 -64 521 -69 l337 -5 0 231 0 231 -230 0
-230 0 0 -80 0 -80 150 0 150 0 0 -71 0 -71 -262 4 c-245 4 -267 6 -321 27
-65 25 -120 69 -143 112 -7 15 -14 51 -14 80 0 67 30 121 90 159 82 53 140 60
493 60 l317 0 0 80 0 80 -307 -1 c-170 -1 -335 -5 -368 -10z"/>
</g>
</svg>
